<?xml version="1.0" encoding="UTF-8"?><svg id="a" xmlns="http://www.w3.org/2000/svg" width="584.29" height="215.28" xmlns:xlink="http://www.w3.org/1999/xlink" viewBox="0 0 584.29 215.28"><defs><filter id="b" x="116.06" y="8.49" width="260" height="64.77" filterUnits="userSpaceOnUse"><feOffset dx="4" dy="4"/><feGaussianBlur result="c" stdDeviation="0"/><feFlood flood-color="#292929" flood-opacity="1"/><feComposite in2="c" operator="in"/><feComposite in="SourceGraphic"/></filter><filter id="d" x="160.32" y="76.99" width="421.9" height="62.75" filterUnits="userSpaceOnUse"><feOffset dx="4" dy="4"/><feGaussianBlur result="e" stdDeviation="0"/><feFlood flood-color="#292929" flood-opacity="1"/><feComposite in2="e" operator="in"/><feComposite in="SourceGraphic"/></filter><filter id="f" x="0" y="147.56" width="511" height="52.87" filterUnits="userSpaceOnUse"><feOffset dx="4" dy="4"/><feGaussianBlur result="g" stdDeviation="0"/><feFlood flood-color="#292929" flood-opacity="1"/><feComposite in2="g" operator="in"/><feComposite in="SourceGraphic"/></filter></defs><g filter="url(#b)"><path d="M118.76,24.65c0-6.54,6.29-14.66,18.5-14.66,4.03,0,8.56,1.76,9.5,1.76.88,0,1.76-.88,3.08-.88,2.14,0,6.92,4.85,6.92,10.13,0,2.14-1.38,4.28-3.71,4.28-4.22,0-6.67-7.17-13.21-7.17-1.95,0-4.03.88-4.03,3.15,0,4.97,8.62,3.65,15.92,8.5,3.9,2.58,5.85,5.73,5.85,10.45,0,7.36-6.04,15.67-20.7,15.67-4.15,0-11.26-1.07-14.85-3.02-3.02-1.7-4.47-8.37-4.47-11.58,0-1.7.76-3.4,2.64-3.4,4.47,0,3.71,10.01,15.29,10.01,1.38,0,4.85-.69,4.85-3.08,0-4.53-8.62-3.4-15.61-9-3.46-2.77-5.98-6.61-5.98-11.14Z" fill="#e0e0e0" stroke="#292929" stroke-miterlimit="10" stroke-width="3"/><path d="M178.1,43.34c0,7.43,3.71,4.72,3.71,8.05,0,4.28-7.99,4.28-10.82,4.28-10.82,0-11.26-2.45-11.26-3.96,0-2.27,2.58-2.39,3.34-4.34.82-2.2.94-11.33.25-13.66-.57-2.2-3.78-1.51-3.78-4.34,0-4.47,15.98-6.36,16.61-6.36,1.89,0,1.95,1.45,1.95,2.77v17.56ZM165.64,21c-2.64,0-5.47-1.2-5.47-4.28,0-4.15,8.31-5.85,11.52-5.85,2.52,0,6.1.82,6.1,3.96,0,4.91-8.56,6.17-12.14,6.17Z" fill="#e0e0e0" stroke="#292929" stroke-miterlimit="10" stroke-width="3"/><path d="M199.43,67.76c-11.64,0-16.05-4.41-16.05-8.43,0-3.65,3.46-3.71,3.46-4.66,0-.82-3.4-2.58-3.4-5.35,0-4.47,5.1-5.79,5.1-6.67,0-.75-4.28-3.65-4.28-8.31,0-7.61,9.5-11.14,15.86-11.14,3.21,0,7.55,1.2,9.75,1.2,4.78,0,7.17-3.34,8.12-3.34,1.45,0,2.08,1.89,2.08,3.08,0,3.52-3.52,6.04-3.52,6.73,0,.63.19,1.32.19,1.95,0,8.5-9.88,11.39-16.8,11.39-1.07,0-2.14-.19-3.27-.19-1.07,0-1.7.69-1.7,1.7,0,1.95,2.77,2.33,4.22,2.33,1.95,0,9.25-1.07,11.77-1.07,6.54,0,9.31,3.71,9.31,7.49,0,5.66-5.41,13.28-20.83,13.28ZM200.06,62.35c2.08,0,6.8-.31,6.8-3.21,0-1.32-1.26-1.89-2.45-1.89-.94,0-3.4.38-5.41.38-1.45,0-4.85-.5-5.54-.5-.57,0-.75.57-.75,1.01,0,3.33,4.91,4.22,7.36,4.22ZM200.43,27.8c-2.45,0-3.52,2.33-3.52,4.53,0,2.39.63,7.61,3.84,7.61,2.83,0,3.78-2.45,3.78-4.91,0-2.58-.57-7.24-4.09-7.24Z" fill="#e0e0e0" stroke="#292929" stroke-miterlimit="10" stroke-width="3"/><path d="M239.44,44.47c0,6.1,2.14,5.03,2.14,7.43,0,3.9-8.37,3.78-10.95,3.78s-8.94,0-8.94-3.78c0-3.02,2.89-.31,3.08-6.48l.25-9.44c.13-4.66-3.71-3.15-3.71-6.48s14.47-6.48,15.73-6.48c1.38,0,2.27,1.2,2.27,2.45,0,.38-.06.75-.06,1.13,0,.76.31,1.64,1.26,1.64,1.01,0,1.57-1.32,2.83-2.64,1.26-1.26,3.15-2.58,6.73-2.58,13.03,0,10.82,12.77,11.45,22.34.31,4.97,2.89,3.84,2.89,6.54,0,1.13.25,3.78-11.58,3.78-2.27,0-8.31.13-8.31-3.4,0-2.27,2.08-1.2,2.39-5.29.31-4.47,2.08-14.54-3.84-14.54-4.03,0-3.65,4.34-3.65,7.17v4.85Z" fill="#e0e0e0" stroke="#292929" stroke-miterlimit="10" stroke-width="3"/><path d="M304.06,43.34c0,7.43,3.71,4.72,3.71,8.05,0,4.28-7.99,4.28-10.82,4.28-10.82,0-11.26-2.45-11.26-3.96,0-2.27,2.58-2.39,3.34-4.34.82-2.2.94-11.33.25-13.66-.57-2.2-3.78-1.51-3.78-4.34,0-4.47,15.98-6.36,16.61-6.36,1.89,0,1.95,1.45,1.95,2.77v17.56ZM291.6,21c-2.64,0-5.47-1.2-5.47-4.28,0-4.15,8.31-5.85,11.52-5.85,2.52,0,6.1.82,6.1,3.96,0,4.91-8.56,6.17-12.14,6.17Z" fill="#e0e0e0" stroke="#292929" stroke-miterlimit="10" stroke-width="3"/><path d="M327.22,44.47c0,6.1,2.14,5.03,2.14,7.43,0,3.9-8.37,3.78-10.95,3.78s-8.94,0-8.94-3.78c0-3.02,2.89-.31,3.08-6.48l.25-9.44c.13-4.66-3.71-3.15-3.71-6.48s14.47-6.48,15.73-6.48c1.38,0,2.27,1.2,2.27,2.45,0,.38-.06.75-.06,1.13,0,.76.31,1.64,1.26,1.64,1.01,0,1.57-1.32,2.83-2.64,1.26-1.26,3.15-2.58,6.73-2.58,13.03,0,10.82,12.77,11.45,22.34.31,4.97,2.89,3.84,2.89,6.54,0,1.13.25,3.78-11.58,3.78-2.27,0-8.31.13-8.31-3.4,0-2.27,2.08-1.2,2.39-5.29.32-4.47,2.08-14.54-3.84-14.54-4.03,0-3.65,4.34-3.65,7.17v4.85Z" fill="#e0e0e0" stroke="#292929" stroke-miterlimit="10" stroke-width="3"/><path d="M358.61,64.17c0-1.07,3.15-4.85,3.15-7.36,0-2.71-6.92-1.38-6.92-9,0-4.03,3.27-7.61,7.36-7.61,5.73,0,8.37,5.54,8.37,10.57,0,5.6-3.84,15.86-8.81,15.86-1.32,0-3.15-1.01-3.15-2.45Z" fill="#e0e0e0" stroke="#292929" stroke-miterlimit="10" stroke-width="3"/></g><g filter="url(#d)"><path d="M177.36,108.13c-.69,0-1.7-.19-1.7.88,0,3.15,4.09,5.79,7.05,5.79,4.72,0,7.05-2.83,8.37-2.83s2.45,1.95,2.45,3.15c0,4.85-8.87,8.37-14.54,8.37-11.33,0-17.18-8.18-17.18-16.3,0-9.69,8.24-16.74,17.68-16.74,10.7,0,15.42,8.24,15.42,12.96,0,4.15-1.89,4.72-3.9,4.72h-13.66ZM182.84,100.2c0-2.27-1.38-4.03-3.71-4.03-2.08,0-3.78,2.14-3.78,4.15,0,2.27,2.14,1.76,3.78,1.76s3.71.38,3.71-1.89Z" fill="#e0e0e0" stroke="#292929" stroke-miterlimit="10" stroke-width="3"/><path d="M214.55,112.09c0,6.1,2.14,5.03,2.14,7.43,0,3.9-8.37,3.78-10.95,3.78s-8.94,0-8.94-3.78c0-3.02,2.89-.31,3.08-6.48l.25-9.44c.13-4.66-3.71-3.15-3.71-6.48s14.47-6.48,15.73-6.48c1.38,0,2.27,1.2,2.27,2.45,0,.38-.06.75-.06,1.13,0,.76.31,1.64,1.26,1.64,1.01,0,1.57-1.32,2.83-2.64,1.26-1.26,3.15-2.58,6.73-2.58,13.03,0,10.82,12.77,11.45,22.34.31,4.97,2.89,3.84,2.89,6.54,0,1.13.25,3.78-11.58,3.78-2.27,0-8.31.13-8.31-3.4,0-2.27,2.08-1.2,2.39-5.29.31-4.47,2.08-14.54-3.84-14.54-4.03,0-3.65,4.34-3.65,7.17v4.85Z" fill="#e0e0e0" stroke="#292929" stroke-miterlimit="10" stroke-width="3"/><path d="M260.54,109.01c0,4.22,1.76,5.22,3.46,5.22,1.95,0,3.08-1.45,4.22-1.45,1.26,0,2.14,1.76,2.14,2.89,0,4.15-7.17,7.8-13.53,7.8-3.21,0-11.26-1.38-11.26-11.39v-12.96c0-1.13,0-1.57-.31-1.76-.31-.19-1.01-.06-2.45-.06-1.64,0-2.45.06-2.77-.25-.44-.44-.31-1.07-.31-2.52,0-.88-.19-1.57.57-2.08l14.35-9.12c1.45-.88,1.38-.69,3.27-.69,2.52,0,2.64-.25,2.64,2.64,0,1.95-.13,3.9.19,4.66.19.5.63.5,2.27.5h4.4c2.71,0,2.71.19,2.71,3.02,0,3.59-.44,3.84-2.89,3.84h-4.34c-2.2,0-2.33.06-2.33,2.33v9.38Z" fill="#e0e0e0" stroke="#292929" stroke-miterlimit="10" stroke-width="3"/><path d="M287.41,108.13c-.69,0-1.7-.19-1.7.88,0,3.15,4.09,5.79,7.05,5.79,4.72,0,7.05-2.83,8.37-2.83s2.45,1.95,2.45,3.15c0,4.85-8.87,8.37-14.54,8.37-11.33,0-17.18-8.18-17.18-16.3,0-9.69,8.24-16.74,17.68-16.74,10.7,0,15.42,8.24,15.42,12.96,0,4.15-1.89,4.72-3.9,4.72h-13.66ZM292.89,100.2c0-2.27-1.38-4.03-3.71-4.03-2.08,0-3.78,2.14-3.78,4.15,0,2.27,2.14,1.76,3.78,1.76s3.71.38,3.71-1.89Z" fill="#e0e0e0" stroke="#292929" stroke-miterlimit="10" stroke-width="3"/><path d="M310.75,103.54c0-6.17-3.9-2.71-3.9-6.54,0-4.97,14.72-6.36,15.29-6.36,2.39,0,2.45.63,2.71,2.77.06.75,0,2.2,1.07,2.2,1.51,0,2.45-4.97,7.87-4.97,4.22,0,6.99,3.15,6.99,7.3s-3.59,7.55-7.74,7.55-5.22-3.59-6.86-3.59c-1.76,0-1.45,4.22-1.45,5.35,0,1.89.19,4.53.5,6.92.38,2.77,5.16,1.07,5.16,4.85,0,3.96-5.54,4.28-12.46,4.28-2.89,0-11.45.13-11.45-4.22,0-2.64,2.89-2.64,3.59-4.85.5-1.57.69-5.16.69-6.92v-3.78Z" fill="#e0e0e0" stroke="#292929" stroke-miterlimit="10" stroke-width="3"/><path d="M393.87,107.56c0,11.08,3.78,5.03,3.78,8.43,0,3.59-4.91,7.49-9.5,7.49-4.97,0-5.1-3.21-6.67-3.21-.75,0-1.57.82-2.96,1.57-1.38.82-3.27,1.64-6.17,1.64-5.22,0-10.45-2.77-10.45-9,0-4.47,4.28-10.01,15.35-10.01,1.95,0,2.83.13,2.83-2.14,0-2.08-.06-6.42-2.96-6.42-3.78,0-4.15,6.8-9.75,6.8-2.01,0-3.52-1.45-3.52-3.46,0-5.35,10.63-8.81,16.61-8.81,3.59,0,13.4,1.38,13.4,10.82v6.29ZM375,113.1c0,1.64.88,3.4,2.71,3.4,2.39,0,2.58-2.58,2.58-4.47,0-1.38.06-2.96-1.7-2.96-2.14,0-3.59,2.01-3.59,4.03Z" fill="#e0e0e0" stroke="#292929" stroke-miterlimit="10" stroke-width="3"/><path d="M438.04,111.34c0,1.13-.06,3.21.25,4.22.69,2.27,3.52,1.2,3.52,3.84,0,4.22-7.68,3.9-10.38,3.9s-11.64.31-11.64-4.15c0-2.2,2.71-1.38,3.46-3.71.82-2.58.82-10.45.82-13.53,0-2.45.13-7.17-.44-10.01-.94-4.66-4.66-3.02-4.66-6.61,0-5.47,16.36-6.8,17.24-6.8,2.14,0,2.64,1.38,2.64,3.27,0,1.45-.82,8.37-.82,17.37v12.21Z" fill="#e0e0e0" stroke="#292929" stroke-miterlimit="10" stroke-width="3"/><path d="M461.7,110.96c0,7.43,3.71,4.72,3.71,8.05,0,4.28-7.99,4.28-10.82,4.28-10.82,0-11.26-2.45-11.26-3.96,0-2.27,2.58-2.39,3.33-4.34.82-2.2.94-11.33.25-13.66-.57-2.2-3.78-1.51-3.78-4.34,0-4.47,15.98-6.36,16.61-6.36,1.89,0,1.95,1.45,1.95,2.77v17.56ZM449.24,88.62c-2.64,0-5.47-1.2-5.47-4.28,0-4.15,8.31-5.85,11.52-5.85,2.52,0,6.1.82,6.1,3.96,0,4.91-8.56,6.17-12.14,6.17Z" fill="#e0e0e0" stroke="#292929" stroke-miterlimit="10" stroke-width="3"/><path d="M484.85,112.09c0,6.1,2.14,5.03,2.14,7.43,0,3.9-8.37,3.78-10.95,3.78s-8.94,0-8.94-3.78c0-3.02,2.89-.31,3.08-6.48l.25-9.44c.13-4.66-3.71-3.15-3.71-6.48s14.47-6.48,15.73-6.48c1.38,0,2.27,1.2,2.27,2.45,0,.38-.06.75-.06,1.13,0,.76.31,1.64,1.26,1.64,1.01,0,1.57-1.32,2.83-2.64,1.26-1.26,3.15-2.58,6.73-2.58,13.03,0,10.82,12.77,11.45,22.34.31,4.97,2.89,3.84,2.89,6.54,0,1.13.25,3.78-11.58,3.78-2.27,0-8.31.13-8.31-3.4,0-2.27,2.08-1.2,2.39-5.29.32-4.47,2.08-14.54-3.84-14.54-4.03,0-3.65,4.34-3.65,7.17v4.85Z" fill="#e0e0e0" stroke="#292929" stroke-miterlimit="10" stroke-width="3"/><path d="M533.62,113.04c-.25-.38-1.76-2.52-2.39-2.52-.69,0-.63,1.38-.63,1.76-.19,5.6,2.58,3.71,2.58,6.67,0,1.76-.44,4.34-10.26,4.34-5.16,0-11.01.19-11.01-3.96,0-3.02,3.33-.82,3.52-6.1.19-4.41.5-10.38.5-13.15v-9c0-5.1-4.85-1.7-4.85-5.29,0-4.22,14.22-7.3,17.56-7.3,1.7,0,1.83,1.01,1.76,2.39l-.32,13.34c-.12,4.03-.12,5.6,1.38,5.6,1.01,0,5.03-2.14,5.03-3.08,0-.88-1.26-1.38-1.26-2.64,0-3.27,6.42-3.46,8.62-3.46,2.58,0,9.44.06,9.44,3.96,0,2.83-2.33,1.51-6.1,3.84-.63.31-3.08,1.57-3.08,2.33,0,1.57,7.36,10.63,8.56,12.08,2.83,3.52,6.29,3.46,6.29,6.1,0,1.95-1.45,3.65-6.29,3.65h-8.87c-2.52,0-2.83-.13-4.34-2.08l-5.85-7.49Z" fill="#e0e0e0" stroke="#292929" stroke-miterlimit="10" stroke-width="3"/><path d="M564.76,131.79c0-1.07,3.15-4.85,3.15-7.36,0-2.71-6.92-1.38-6.92-9,0-4.03,3.27-7.61,7.36-7.61,5.73,0,8.37,5.54,8.37,10.57,0,5.6-3.84,15.86-8.81,15.86-1.32,0-3.15-1.01-3.15-2.45Z" fill="#e0e0e0" stroke="#292929" stroke-miterlimit="10" stroke-width="3"/></g><g filter="url(#f)"><path d="M36.68,182.66c-.44-.69-1.13-2.08-2.08-2.08-1.32,0-2.2,1.83-2.77,2.83l-4.59,7.99c-.88,1.45-1.95,3.33-3.9,3.33-2.33,0-3.71-2.52-4.78-4.28l-11.96-19.44c-2.01-3.33-5.1-1.38-5.1-4.59,0-4.03,9.63-4.34,12.52-4.34,2.45,0,10.07.06,10.07,3.78,0,1.45-1.2,2.01-1.2,2.83,0,1.07,2.9,6.67,4.47,6.67,1.13,0,2.89-3.27,2.89-4.15,0-3.02-3.9-3.02-3.9-5.35,0-1.26.31-3.78,12.65-3.78,2.39,0,9.12-.13,9.12,3.33,0,2.27-2.01,2.45-2.01,3.9,0,1.26,2.39,6.17,3.78,6.17,1.89,0,4.28-5.73,4.28-6.17,0-1.57-1.76-1.95-1.76-4.03,0-3.15,5.6-3.21,7.68-3.21s7.68,0,7.68,3.15c0,3.52-3.84,1.01-6.67,6.29l-8.05,15.79c-1.07,2.01-3.84,7.43-6.61,7.43-2.45,0-5.41-5.1-6.54-6.92l-3.21-5.16Z" fill="#e0e0e0" stroke="#292929" stroke-miterlimit="10" stroke-width="3"/><path d="M83.93,179.57c-.69,0-1.7-.19-1.7.88,0,3.15,4.09,5.79,7.05,5.79,4.72,0,7.05-2.83,8.37-2.83s2.45,1.95,2.45,3.15c0,4.85-8.87,8.37-14.54,8.37-11.33,0-17.18-8.18-17.18-16.3,0-9.69,8.24-16.74,17.68-16.74,10.7,0,15.42,8.24,15.42,12.96,0,4.15-1.89,4.72-3.9,4.72h-13.66ZM89.4,171.65c0-2.26-1.38-4.03-3.71-4.03-2.08,0-3.78,2.14-3.78,4.15,0,2.27,2.14,1.76,3.78,1.76s3.71.38,3.71-1.89Z" fill="#e0e0e0" stroke="#292929" stroke-miterlimit="10" stroke-width="3"/><path d="M161.2,183.41c0,4.41,3.33,2.96,3.33,6.23,0,4.78-13.78,5.1-14.47,5.1-3.21,0-.94-3.46-3.02-3.46-.57,0-1.51.88-2.96,1.82-1.45.88-3.4,1.83-6.17,1.83-8.24,0-14.66-8.75-14.66-16.49,0-8.37,6.8-16.55,15.48-16.55,4.34,0,6.8,1.89,7.49,1.89.94,0,1.01-2.08,1.01-2.77,0-3.9-4.59-1.82-4.59-5.22,0-4.66,16.05-5.85,16.24-5.85,1.89,0,2.33,1.32,2.33,3.4v30.08ZM143.64,168.75c-4.22,0-4.97,7.24-4.97,10.19s.76,8.12,4.66,8.12c4.22,0,3.96-7.74,3.96-10.51,0-2.45,0-7.8-3.65-7.8Z" fill="#e0e0e0" stroke="#292929" stroke-miterlimit="10" stroke-width="3"/><path d="M166.29,179.51c0-11.26,9.88-17.62,20.26-17.62,11.01,0,17.3,8.62,17.3,16.42,0,10.32-11.08,16.61-20.33,16.61s-17.24-5.47-17.24-15.42ZM183.85,169.32c-2.08,0-3.21,1.95-3.08,3.77.25,3.96,1.38,13.66,5.73,13.91,2.39.13,2.89-1.89,2.89-3.9,0-2.83-1.26-13.78-5.54-13.78Z" fill="#e0e0e0" stroke="#292929" stroke-miterlimit="10" stroke-width="3"/><path d="M245.19,180.46c0,4.22,1.76,5.22,3.46,5.22,1.95,0,3.08-1.45,4.22-1.45,1.26,0,2.14,1.76,2.14,2.89,0,4.15-7.17,7.8-13.53,7.8-3.21,0-11.26-1.38-11.26-11.39v-12.96c0-1.13,0-1.57-.31-1.76-.31-.19-1.01-.06-2.45-.06-1.64,0-2.45.06-2.77-.25-.44-.44-.31-1.07-.31-2.52,0-.88-.19-1.57.57-2.08l14.35-9.12c1.45-.88,1.38-.69,3.27-.69,2.52,0,2.64-.25,2.64,2.64,0,1.95-.13,3.9.19,4.66.19.5.63.5,2.27.5h4.4c2.71,0,2.71.19,2.71,3.02,0,3.59-.44,3.84-2.89,3.84h-4.34c-2.2,0-2.33.06-2.33,2.33v9.38Z" fill="#e0e0e0" stroke="#292929" stroke-miterlimit="10" stroke-width="3"/><path d="M296.6,184.67c0,5.35,3.08,4.03,3.08,6.48,0,3.65-8.06,3.59-10.38,3.59-1.95,0-9.56,0-9.56-3.21,0-1.83,1.76-1.76,2.27-4.97.38-2.01.44-4.22.44-6.29,0-3.15-.06-9.06-4.53-9.06-3.84,0-3.71,3.27-3.71,6.1v7.3c0,5.22,2.52,4.15,2.52,6.42,0,3.65-7.17,3.71-9.56,3.71-9,0-11.08-1.89-11.08-3.84,0-2.52,2.45-1.38,3.52-5.47.75-2.96.75-11.26.75-14.72,0-2.83-.19-5.73-.25-8.56-.13-4.47-3.9-2.89-3.9-5.85,0-5.03,16.36-6.36,16.42-6.36,1.89,0,2.01.57,2.01,2.39l-.38,11.96c-.06,1.2-.13,3.21,1.51,3.21,1.89,0,2.71-5.6,9.75-5.6,11.58,0,10.76,10.89,10.82,12.65l.25,10.13Z" fill="#e0e0e0" stroke="#292929" stroke-miterlimit="10" stroke-width="3"/><path d="M316.92,179.57c-.69,0-1.7-.19-1.7.88,0,3.15,4.09,5.79,7.05,5.79,4.72,0,7.05-2.83,8.37-2.83s2.45,1.95,2.45,3.15c0,4.85-8.87,8.37-14.54,8.37-11.33,0-17.18-8.18-17.18-16.3,0-9.69,8.24-16.74,17.68-16.74,10.7,0,15.42,8.24,15.42,12.96,0,4.15-1.89,4.72-3.9,4.72h-13.66ZM322.4,171.65c0-2.26-1.38-4.03-3.71-4.03-2.08,0-3.78,2.14-3.78,4.15,0,2.27,2.14,1.76,3.78,1.76s3.71.38,3.71-1.89Z" fill="#e0e0e0" stroke="#292929" stroke-miterlimit="10" stroke-width="3"/><path d="M360.08,174.98c0-6.17-3.9-2.71-3.9-6.54,0-4.97,14.72-6.36,15.29-6.36,2.39,0,2.45.63,2.71,2.77.06.75,0,2.2,1.07,2.2,1.51,0,2.45-4.97,7.87-4.97,4.22,0,6.99,3.15,6.99,7.3s-3.59,7.55-7.74,7.55-5.22-3.59-6.86-3.59c-1.76,0-1.45,4.22-1.45,5.35,0,1.89.19,4.53.5,6.92.38,2.77,5.16,1.07,5.16,4.85,0,3.96-5.54,4.28-12.46,4.28-2.89,0-11.45.13-11.45-4.22,0-2.64,2.89-2.64,3.59-4.84.5-1.57.69-5.16.69-6.92v-3.78Z" fill="#e0e0e0" stroke="#292929" stroke-miterlimit="10" stroke-width="3"/><path d="M407.15,179.57c-.69,0-1.7-.19-1.7.88,0,3.15,4.09,5.79,7.05,5.79,4.72,0,7.05-2.83,8.37-2.83s2.45,1.95,2.45,3.15c0,4.85-8.87,8.37-14.54,8.37-11.33,0-17.18-8.18-17.18-16.3,0-9.69,8.24-16.74,17.68-16.74,10.7,0,15.42,8.24,15.42,12.96,0,4.15-1.89,4.72-3.9,4.72h-13.65ZM412.63,171.65c0-2.26-1.38-4.03-3.71-4.03-2.08,0-3.78,2.14-3.78,4.15,0,2.27,2.14,1.76,3.78,1.76s3.71.38,3.71-1.89Z" fill="#e0e0e0" stroke="#292929" stroke-miterlimit="10" stroke-width="3"/><path d="M443.77,162.27c1.13.19,2.14.44,2.58.44.63,0,1.13-.19,1.7-.44.57-.19,1.13-.38,1.7-.38,2.89,0,5.79,5.79,5.79,8.37,0,1.7-1.45,2.96-3.08,2.96-3.59,0-5.6-4.97-8.37-4.97-1.13,0-2.27.94-2.27,2.14,0,4.03,13.84,4.78,13.84,14.54,0,5.92-5.73,10-12.27,10-1.26,0-3.08-.19-4.66-.44-1.57-.19-2.96-.38-3.33-.38-.44,0-.82.06-1.26.13-.38.06-.76.13-1.2.13-1.26,0-1.89-.19-2.77-1.2-1.57-1.76-3.15-5.35-3.15-7.74,0-1.64.57-2.96,2.39-2.96,2.77,0,5.29,6.23,8.81,6.23,1.26,0,2.45-.63,2.45-2.01,0-3.71-12.33-4.15-12.33-14.54,0-6.29,5.16-10.26,11.64-10.26,1.26,0,2.58.13,3.78.38Z" fill="#e0e0e0" stroke="#292929" stroke-miterlimit="10" stroke-width="3"/><path d="M477.5,180.46c0,4.22,1.76,5.22,3.46,5.22,1.95,0,3.08-1.45,4.22-1.45,1.26,0,2.14,1.76,2.14,2.89,0,4.15-7.17,7.8-13.53,7.8-3.21,0-11.26-1.38-11.26-11.39v-12.96c0-1.13,0-1.57-.32-1.76-.31-.19-1.01-.06-2.45-.06-1.64,0-2.45.06-2.77-.25-.44-.44-.31-1.07-.31-2.52,0-.88-.19-1.57.57-2.08l14.35-9.12c1.45-.88,1.38-.69,3.27-.69,2.52,0,2.64-.25,2.64,2.64,0,1.95-.13,3.9.19,4.66.19.5.63.5,2.27.5h4.4c2.71,0,2.71.19,2.71,3.02,0,3.59-.44,3.84-2.89,3.84h-4.34c-2.2,0-2.33.06-2.33,2.33v9.38Z" fill="#e0e0e0" stroke="#292929" stroke-miterlimit="10" stroke-width="3"/><path d="M502.29,170.77c-.57,1.2-2.77,5.29-4.34,5.29s-3.78-4.09-4.34-5.29c-1.76-3.46-3.21-8.18-3.21-12.08,0-4.66,2.2-9.63,7.55-9.63s7.55,4.97,7.55,9.63c0,3.9-1.45,8.62-3.21,12.08ZM497.94,194.93c-3.84,0-6.99-3.15-6.99-6.98s3.15-6.99,6.99-6.99,6.98,3.15,6.98,6.99-3.15,6.98-6.98,6.98Z" fill="#e0e0e0" stroke="#292929" stroke-miterlimit="10" stroke-width="3"/></g><path d="M377.45,25.79l1.27,14.42s46.28-14.12,66.94,14.08l-8.37,7.64,28.32,2.18-5.35-22.69-6.3,6.22s-29.79-34.44-76.5-21.85Z" fill="#db2764" stroke="#292929" stroke-miterlimit="10" stroke-width="3"/><path d="M144.27,99.06l.37,14.47s-47.58-8.82-64.93,21.54l9.17,6.65-27.89,5.36,2.76-23.15,6.96,5.47s25.71-37.58,73.55-30.34Z" fill="#db2764" stroke="#292929" stroke-miterlimit="10" stroke-width="3"/></svg>